<svg width="327" height="306" viewBox="0 0 327 306" fill="none" xmlns="http://www.w3.org/2000/svg">
<rect width="327" height="306" rx="100" fill="#C5D8D2"/>
<path d="M84.704 187.758L22.688 165.262V143.618L84.704 121.122V141.794L30.4704 160.398V148.482L84.704 167.086V187.758ZM98.3375 197V111.88H139.317C147.261 111.88 154.111 113.177 159.867 115.771C165.704 118.365 170.203 122.094 173.365 126.958C176.526 131.741 178.107 137.416 178.107 143.982C178.107 150.549 176.526 156.223 173.365 161.006C170.203 165.708 165.704 169.316 159.867 171.829C154.111 174.342 147.261 175.598 139.317 175.598H114.267L127.035 163.803V197H98.3375ZM149.288 197L128.373 165.992H158.773L179.931 197H149.288ZM127.035 166.965L114.267 153.954H137.493C141.465 153.954 144.383 153.062 146.248 151.278C148.193 149.495 149.166 147.063 149.166 143.982C149.166 140.902 148.193 138.47 146.248 136.686C144.383 134.903 141.465 134.011 137.493 134.011H114.267L127.035 121V166.965ZM177.148 209.16L217.276 94.6128H241.596L201.468 209.16H177.148ZM242.257 187.758V167.086L296.49 148.482V160.398L242.257 141.794V121.122L304.273 143.618V165.262L242.257 187.758Z" fill="#162642"/>
</svg>
